<svg width="128" height="128" viewBox="0 0 128 128" xmlns="http://www.w3.org/2000/svg" xmlns:xlink="http://www.w3.org/1999/xlink"><title>favicon-wordpress</title><defs><linearGradient x1="50%" y1="0%" x2="50%" y2="100%" id="a"><stop stop-color="#F31717" offset="0%"/><stop stop-color="#CF0404" offset="100%"/></linearGradient><path d="M66.026 54.374c1.014 0 1.52.507 1.52 1.52v32.93c0 1.013-.506 1.52-1.52 1.52h-4.56c-1.012 0-1.519-.507-1.519-1.52v-32.93c0-1.013.507-1.52 1.52-1.52h4.56zm29.89-6.586c4.053-.506 8.106-2.026 11.653-4.052 2.533 6.079 4.559 12.665 4.559 20.264 0 26.344-21.784 48.128-48.128 48.128-26.85 0-48.128-21.784-48.128-48.128 0-26.85 21.278-48.128 48.128-48.128 8.612 0 17.225 2.026 24.317 6.586-2.026 3.546-3.546 7.6-4.56 11.652-5.572-3.546-12.664-6.08-19.757-6.08-19.758 0-35.97 16.212-35.97 35.97S44.243 99.463 64 99.463 99.463 83.758 99.463 64c0-6.08-1.013-11.145-3.547-16.212zm-36.475-2.533c0-2.533 2.026-4.56 4.052-4.56a4.54 4.54 0 0 1 4.56 4.56c0 2.533-2.027 4.053-4.56 4.053-2.026 0-4.052-1.52-4.052-4.053zm51.674-8.612c-2.027 6.586-20.265 12.159-24.318 8.106-4.052-4.053 2.027-22.291 8.106-24.318 6.08-2.026 18.238 9.626 16.212 16.212z" id="c"/><filter x="-1.6%" y="-1.6%" width="103.1%" height="103.1%" filterUnits="objectBoundingBox" id="b"><feOffset in="SourceAlpha" result="shadowOffsetOuter1"/><feGaussianBlur stdDeviation=".5" in="shadowOffsetOuter1" result="shadowBlurOuter1"/><feColorMatrix values="0 0 0 0 0.266666667 0 0 0 0 0.266666667 0 0 0 0 0.266666667 0 0 0 0.3 0" in="shadowBlurOuter1"/></filter></defs><g fill="none" fill-rule="evenodd"><g><path fill="url(#a)" d="M0 0H128V128H0z"/><g><use fill="#000" filter="url(#b)" xlink:href="#c"/><use fill="#FAFAFA" xlink:href="#c"/></g></g></g></svg>